<svg width="40" height="40" viewBox="0 0 40 40" fill="none" xmlns="http://www.w3.org/2000/svg">
<g clip-path="url(#clip0_42143_39145)">
<circle cx="20" cy="20" r="20" fill="var(--bg-ultralight-3)"/>
<path d="M18.4205 10.5721C13.5983 10.5721 9.68715 14.7944 9.68715 19.9944C9.68715 25.1944 13.5983 29.4277 18.4205 29.4277C23.2427 29.4277 27.1427 25.2055 27.1427 19.9944C27.1427 14.7832 23.2316 10.5721 18.4205 10.5721ZM18.4205 28.3499C14.2872 28.3499 10.7983 24.7055 10.7983 20.0277C10.7983 15.3499 14.2872 11.7166 18.4205 11.7166C22.5538 11.7166 26.0316 15.361 26.0316 20.0277C26.0316 24.6944 22.5427 28.3499 18.4205 28.3499ZM21.5872 6.60547H18.4205C11.6649 6.60547 6.10938 12.6055 6.10938 19.9944C6.10938 27.3832 11.6649 33.3944 18.4205 33.3944C19.0538 33.3944 21.0538 33.3944 21.5872 33.3944C28.3872 33.3944 33.8872 27.3944 33.8872 19.9944C33.8872 12.5944 28.3872 6.60547 21.5872 6.60547ZM18.4205 32.2832C12.3205 32.2832 7.22049 26.8721 7.22049 19.9944C7.22049 13.1166 12.3205 7.71658 18.4205 7.71658C24.5205 7.71658 29.6094 13.1277 29.6094 19.9944C29.6094 26.861 24.5094 32.2832 18.4205 32.2832Z" fill="#C1C6D4"/>
</g>
<defs>
<clipPath id="clip0_42143_39145">
<rect width="40" height="40" fill="white"/>
</clipPath>
</defs>
</svg>
