<!--?xml version="1.0" encoding="utf-8"?-->
<!-- Generator: Adobe Illustrator 24.1.1, SVG Export Plug-In . SVG Version: 6.00 Build 0)  -->
<svg version="1.1" id="_x31_0" xmlns="http://www.w3.org/2000/svg" xmlns:xlink="http://www.w3.org/1999/xlink" x="0px" y="0px" viewBox="0 0 512 512" style="width: 48px; height: 48px; opacity: 1;" xml:space="preserve">
<style type="text/css">
	.st0{fill:#374149;}
</style>
<g>
	<path class="st0" d="M158.176,337.313H44.68V512h113.496V337.313z M131.75,363.738v121.836H71.106V363.738h60.618H131.75z" style="fill: #FFB733;"></path>
	<path class="st0" d="M199.258,512h113.489V266.332H199.258V512z M225.68,485.574v-192.82h60.64v192.82H225.68z" style="fill: #FFB733;"></path>
	<path class="st0" d="M353.988,195.348L353.988,195.348h-0.16V512H467.32V195.348H354.332H353.988z M440.89,221.774v263.801h-60.637
		V221.774h60.614H440.89z" style="fill: #FFB733;"></path>
	<path class="st0" d="M72.684,179.223c1.637,3.476,5.102,5.511,8.711,5.511c1.363,0,2.75-0.289,4.062-0.91L330.578,68.309
		l8.914,18.961c1.477,3.145,4.422,5.196,7.883,5.485c3.461,0.297,6.707-1.23,8.691-4.082l46.422-66.726
		c1.981-2.847,2.29-6.422,0.809-9.566c-1.473-3.144-4.422-5.195-7.879-5.488l-81-6.855c-3.449-0.294-6.706,1.23-8.691,4.082
		c-1.984,2.852-2.289,6.426-0.816,9.566l8.976,18.379l0.09,0.187L68.454,147.618c-2.325,1.09-4.086,3.023-4.958,5.434
		c-0.87,2.414-0.746,5.019,0.344,7.344L72.684,179.223z" style="fill: #FFB733;"></path>
</g>
</svg>
