<!--?xml version="1.0" encoding="utf-8"?-->
<!-- Generator: Adobe Illustrator 24.1.1, SVG Export Plug-In . SVG Version: 6.00 Build 0)  -->
<svg version="1.1" id="_x31_0" xmlns="http://www.w3.org/2000/svg" xmlns:xlink="http://www.w3.org/1999/xlink" x="0px" y="0px" viewBox="0 0 512 512" style="width: 48px; height: 48px; opacity: 1;" xml:space="preserve">
<style type="text/css">
	.st0{fill:#374149;}
</style>
<g>
	<polygon class="st0" points="49.915,511.84 49.915,512 140.49,512 140.49,357.769 49.915,357.769 49.915,511.371 49.915,511.84 	
		" style="fill: rgb(255, 255, 255);"></polygon>
	<polygon class="st0" points="301.287,512 301.287,283.929 210.717,283.929 210.717,511.145 210.713,511.84 210.717,511.84 
		210.717,512 	" style="fill: rgb(255, 255, 255);"></polygon>
	<rect x="371.514" y="210.085" class="st0" width="90.57" height="301.915" style="fill: rgb(255, 255, 255);"></rect>
	<path class="st0" d="M65.302,186.436c1.7,3.614,5.305,5.738,9.059,5.738c1.422,0,2.859-0.305,4.23-0.949L333.049,71.307l0.535-0.25
		l9.27,19.726c1.539,3.27,4.602,5.402,8.199,5.707c3.606,0.305,6.981-1.285,9.043-4.254l48.294-69.41
		c2.062-2.961,2.378-6.684,0.843-9.954c-1.539-3.266-4.602-5.402-8.199-5.706l-84.262-7.13c-3.602-0.304-6.973,1.282-9.043,4.238
		c-2.062,2.969-2.383,6.692-0.844,9.958l9.356,19.168l0.07,0.144L60.896,153.561c-4.985,2.34-7.137,8.301-4.797,13.29
		L65.302,186.436z" style="fill: rgb(255, 255, 255);"></path>
</g>
</svg>
